STARTFONT 2.1
COMMENT Exported by Fony v1.4.0.2
FONT MS2_Test
SIZE 11 96 96
FONTBOUNDINGBOX 11 10 0 -2
STARTPROPERTIES 6
COPYRIGHT "Created with Fony 1.4.0.2"
RESOLUTION_X 96
RESOLUTION_Y 96
FONT_ASCENT 9
FONT_DESCENT 2
DEFAULT_CHAR 0
ENDPROPERTIES
CHARS 256
STARTCHAR 000
ENCODING 0
SWIDTH 792 0
DWIDTH 11 0
BBX 0 0 0 0
BITMAP
ENDCHAR
STARTCHAR 001
ENCODING 1
SWIDTH 792 0
DWIDTH 11 0
BBX 7 5 0 1
BITMAP
1C
BE
BE
BE
1C
ENDCHAR
STARTCHAR 002
ENCODING 2
SWIDTH 792 0
DWIDTH 11 0
BBX 11 11 0 -2
BITMAP
7F40
FEE0
FFA0
E360
41E0
4180
41E0
E360
FFA0
FEE0
7F40
ENDCHAR
STARTCHAR 003
ENCODING 3
SWIDTH 792 0
DWIDTH 11 0
BBX 9 6 1 2
BITMAP
FF80
0000
7F00
7F00
3E00
1C00
ENDCHAR
STARTCHAR 004
ENCODING 4
SWIDTH 792 0
DWIDTH 11 0
BBX 11 11 0 -2
BITMAP
7FC0
8020
FFE0
C060
C060
E0E0
F1E0
BFA0
6AC0
DB60
7BC0
ENDCHAR
STARTCHAR 005
ENCODING 5
SWIDTH 792 0
DWIDTH 11 0
BBX 6 9 4 -1
BITMAP
04
34
74
F4
F4
F4
74
34
04
ENDCHAR
STARTCHAR 006
ENCODING 6
SWIDTH 792 0
DWIDTH 11 0
BBX 11 11 0 -2
BITMAP
7FC0
EFA0
BCA0
D8A0
F0A0
90A0
F0A0
D8A0
BCA0
EFA0
7FC0
ENDCHAR
STARTCHAR 007
ENCODING 7
SWIDTH 792 0
DWIDTH 11 0
BBX 7 7 1 0
BITMAP
3A
7A
FA
FA
FA
7A
3A
ENDCHAR
STARTCHAR 008
ENCODING 8
SWIDTH 792 0
DWIDTH 11 0
BBX 11 11 0 -2
BITMAP
7FC0
FFE0
E280
C2E0
8280
82E0
8280
C2E0
E280
FFE0
7FC0
ENDCHAR
STARTCHAR 009
ENCODING 9
SWIDTH 792 0
DWIDTH 11 0
BBX 6 9 1 -1
BITMAP
04
0C
1C
BC
BC
BC
1C
0C
04
ENDCHAR
STARTCHAR 010
ENCODING 10
SWIDTH 792 0
DWIDTH 11 0
BBX 11 11 0 -2
BITMAP
7FC0
FA60
F3A0
E2C0
4340
4340
4340
E2C0
F3A0
FA60
7FC0
ENDCHAR
STARTCHAR 011
ENCODING 11
SWIDTH 792 0
DWIDTH 11 0
BBX 11 10 0 -2
BITMAP
7FC0
0000
0000
0E00
3B80
60C0
C060
60C0
1B00
3F80
ENDCHAR
STARTCHAR 012
ENCODING 12
SWIDTH 792 0
DWIDTH 11 0
BBX 11 11 0 -2
BITMAP
7FC0
8020
FBE0
F1E0
E4E0
CE60
9F20
CE60
E4E0
F1E0
4040
ENDCHAR
STARTCHAR 013
ENCODING 13
SWIDTH 792 0
DWIDTH 11 0
BBX 9 10 1 -2
BITMAP
7800
8400
4200
3900
0600
0000
1F80
0000
0F00
0F00
ENDCHAR
STARTCHAR 014
ENCODING 14
SWIDTH 792 0
DWIDTH 11 0
BBX 11 11 0 -2
BITMAP
7FC0
C3E0
BDE0
DEE0
E360
FCE0
FFE0
F020
FFE0
F860
7840
ENDCHAR
STARTCHAR 015
ENCODING 15
SWIDTH 792 0
DWIDTH 11 0
BBX 9 5 1 1
BITMAP
3800
7D80
FF00
FE00
4400
ENDCHAR
STARTCHAR 016
ENCODING 16
SWIDTH 792 0
DWIDTH 11 0
BBX 11 11 0 -2
BITMAP
7FC0
FFE0
FFE0
E3E0
C120
8060
80E0
DDE0
FFE0
FFE0
7FC0
ENDCHAR
STARTCHAR 017
ENCODING 17
SWIDTH 792 0
DWIDTH 11 0
BBX 11 7 0 0
BITMAP
2780
73C0
C060
C060
C060
79C0
3C80
ENDCHAR
STARTCHAR 018
ENCODING 18
SWIDTH 792 0
DWIDTH 11 0
BBX 11 11 0 -2
BITMAP
7FC0
C7E0
8FE0
3C60
3E20
3F80
8F80
C780
FE20
FC60
7FC0
ENDCHAR
STARTCHAR 019
ENCODING 19
SWIDTH 792 0
DWIDTH 11 0
BBX 6 5 0 1
BITMAP
04
8C
FC
AC
24
ENDCHAR
STARTCHAR 020
ENCODING 20
SWIDTH 792 0
DWIDTH 11 0
BBX 11 11 0 -2
BITMAP
7FC0
FEE0
FF60
FBA0
72C0
0340
52C0
DBA0
FF60
FEE0
7FC0
ENDCHAR
STARTCHAR 021
ENCODING 21
SWIDTH 792 0
DWIDTH 11 0
BBX 9 5 1 -1
BITMAP
FE00
1B00
1100
1B80
0E00
ENDCHAR
STARTCHAR 022
ENCODING 22
SWIDTH 792 0
DWIDTH 11 0
BBX 11 11 0 -2
BITMAP
60C0
DF60
B1A0
AEA0
FFE0
80E0
F260
F760
F220
F8E0
7FC0
ENDCHAR
STARTCHAR 023
ENCODING 23
SWIDTH 792 0
DWIDTH 11 0
BBX 3 9 3 -1
BITMAP
E0
80
C0
E0
E0
E0
E0
E0
E0
ENDCHAR
STARTCHAR 024
ENCODING 24
SWIDTH 792 0
DWIDTH 11 0
BBX 11 11 0 -2
BITMAP
7FC0
E260
EFA0
E6C0
E340
E340
E2C0
E3A0
E260
E3E0
7FC0
ENDCHAR
STARTCHAR 025
ENCODING 25
SWIDTH 792 0
DWIDTH 11 0
BBX 5 9 3 -1
BITMAP
70
F8
F8
F8
F8
F8
F8
20
20
ENDCHAR
STARTCHAR 026
ENCODING 26
SWIDTH 792 0
DWIDTH 11 0
BBX 11 11 0 -2
BITMAP
5F40
B1A0
A0A0
A0A0
A0A0
A0A0
A0A0
A0A0
BBA0
DB60
7FC0
ENDCHAR
STARTCHAR 027
ENCODING 27
SWIDTH 792 0
DWIDTH 11 0
BBX 9 5 1 1
BITMAP
2200
7F00
FF80
7F00
2200
ENDCHAR
STARTCHAR 028
ENCODING 28
SWIDTH 792 0
DWIDTH 11 0
BBX 11 11 0 -2
BITMAP
7FC0
FFE0
FFE0
EEE0
C060
8020
C060
EEE0
FFE0
FFE0
7FC0
ENDCHAR
STARTCHAR 029
ENCODING 29
SWIDTH 792 0
DWIDTH 11 0
BBX 5 9 3 -1
BITMAP
20
70
F8
70
70
70
F8
70
20
ENDCHAR
STARTCHAR 030
ENCODING 30
SWIDTH 792 0
DWIDTH 11 0
BBX 11 11 0 -2
BITMAP
7FC0
FBE0
F1E0
E0E0
F1E0
F1E0
F1E0
E0E0
F1E0
FBE0
7FC0
ENDCHAR
STARTCHAR 031
ENCODING 31
SWIDTH 792 0
DWIDTH 11 0
BBX 8 9 1 -1
BITMAP
3F
7E
F0
E0
E4
FE
7F
3E
04
ENDCHAR
STARTCHAR 032
ENCODING 32
SWIDTH 792 0
DWIDTH 11 0
BBX 11 11 0 -2
BITMAP
7FC0
E060
C0E0
87E0
8FE0
8DE0
80E0
C060
E0E0
FDE0
7FC0
ENDCHAR
STARTCHAR 033
ENCODING 33
SWIDTH 792 0
DWIDTH 11 0
BBX 9 9 1 -1
BITMAP
2000
7C00
FE00
7F00
2700
0700
0F80
0700
0200
ENDCHAR
STARTCHAR 034
ENCODING 34
SWIDTH 792 0
DWIDTH 11 0
BBX 11 11 0 -2
BITMAP
7FC0
EFE0
C1E0
80E0
C060
EC60
FC60
F820
FC60
FEE0
7FC0
ENDCHAR
STARTCHAR 035
ENCODING 35
SWIDTH 792 0
DWIDTH 11 0
BBX 7 9 2 -1
BITMAP
38
7C
38
7C
FE
FE
FE
FE
FE
ENDCHAR
STARTCHAR 036
ENCODING 36
SWIDTH 792 0
DWIDTH 11 0
BBX 11 11 0 -2
BITMAP
7FC0
F1E0
E0E0
F1E0
E0E0
C060
C060
C060
C060
C060
7FC0
ENDCHAR
STARTCHAR 037
ENCODING 37
SWIDTH 792 0
DWIDTH 11 0
BBX 9 9 0 -2
BITMAP
0E00
6300
F300
9600
8880
3480
6780
6300
3800
ENDCHAR
STARTCHAR 038
ENCODING 38
SWIDTH 792 0
DWIDTH 11 0
BBX 11 11 0 -2
BITMAP
0180
0040
0D20
60A0
F200
9600
8880
3480
6780
6300
3800
ENDCHAR
STARTCHAR 039
ENCODING 39
SWIDTH 792 0
DWIDTH 11 0
BBX 11 5 0 -1
BITMAP
4E40
DF60
DB60
DF60
4E40
ENDCHAR
STARTCHAR 040
ENCODING 40
SWIDTH 792 0
DWIDTH 11 0
BBX 11 10 0 -1
BITMAP
3F80
4040
0E00
1100
0000
4E40
DF60
DB60
DF60
4E40
ENDCHAR
STARTCHAR 041
ENCODING 41
SWIDTH 792 0
DWIDTH 11 0
BBX 7 7 0 -2
BITMAP
92
7C
6C
C6
6C
7C
92
ENDCHAR
STARTCHAR 042
ENCODING 42
SWIDTH 792 0
DWIDTH 11 0
BBX 11 11 0 -2
BITMAP
0180
0040
0120
00A0
9200
7C00
6C00
C600
6C00
7C00
9200
ENDCHAR
STARTCHAR 043
ENCODING 43
SWIDTH 792 0
DWIDTH 11 0
BBX 10 11 1 -2
BITMAP
0300
4080
E240
5140
4C00
2400
2E00
3F00
1F00
1F00
0E00
ENDCHAR
STARTCHAR 044
ENCODING 44
SWIDTH 792 0
DWIDTH 11 0
BBX 11 11 0 -2
BITMAP
7E40
DFA0
8EC0
D740
D9E0
EDE0
E8E0
E060
F060
F060
78C0
ENDCHAR
STARTCHAR 045
ENCODING 45
SWIDTH 792 0
DWIDTH 11 0
BBX 5 9 3 -1
BITMAP
70
F8
88
88
F8
F8
F8
F8
50
ENDCHAR
STARTCHAR 046
ENCODING 46
SWIDTH 792 0
DWIDTH 11 0
BBX 11 11 0 -2
BITMAP
2080
4E40
9F20
9120
9120
9F20
9F20
9F20
9F20
4A40
2080
ENDCHAR
STARTCHAR 047
ENCODING 47
SWIDTH 792 0
DWIDTH 11 0
BBX 9 7 1 -2
BITMAP
C180
E380
F780
DD80
C980
C180
C180
ENDCHAR
STARTCHAR 048
ENCODING 48
SWIDTH 792 0
DWIDTH 11 0
BBX 11 11 0 -2
BITMAP
3F80
4040
8E20
0000
60C0
71C0
7BC0
6EC0
64C0
60C0
60C0
ENDCHAR
STARTCHAR 049
ENCODING 49
SWIDTH 792 0
DWIDTH 11 0
BBX 7 10 0 -2
BITMAP
04
9C
FC
FE
FC
9C
84
80
80
80
ENDCHAR
STARTCHAR 050
ENCODING 50
SWIDTH 792 0
DWIDTH 11 0
BBX 11 11 0 -2
BITMAP
0180
0440
9D20
FCA0
FEA0
FCA0
9D20
8440
8180
8000
8000
ENDCHAR
STARTCHAR 051
ENCODING 51
SWIDTH 792 0
DWIDTH 11 0
BBX 9 10 1 -1
BITMAP
0600
0100
4480
C280
2000
1800
1980
0380
2F80
7F80
ENDCHAR
STARTCHAR 052
ENCODING 52
SWIDTH 792 0
DWIDTH 11 0
BBX 11 11 0 -2
BITMAP
7CC0
FF60
DDA0
9EA0
EFE0
F3E0
F320
FE20
E820
C020
7FC0
ENDCHAR
STARTCHAR 053
ENCODING 53
SWIDTH 792 0
DWIDTH 11 0
BBX 11 11 0 -2
BITMAP
F1E0
9120
9120
9120
F1E0
F1E0
B1A0
D160
B1A0
F1E0
F1E0
ENDCHAR
STARTCHAR 054
ENCODING 54
SWIDTH 792 0
DWIDTH 11 0
BBX 9 11 1 -2
BITMAP
F780
9480
9480
9480
F780
F780
D580
B680
D580
F780
F780
ENDCHAR
STARTCHAR 055
ENCODING 55
SWIDTH 792 0
DWIDTH 11 0
BBX 6 11 0 -2
BITMAP
F4
94
94
94
F4
F4
B4
D4
B4
F4
F4
ENDCHAR
STARTCHAR 056
ENCODING 56
SWIDTH 792 0
DWIDTH 11 0
BBX 11 11 0 -2
BITMAP
F580
9440
9520
94A0
F4A0
F520
B440
D580
B400
F400
F400
ENDCHAR
STARTCHAR 057
ENCODING 57
SWIDTH 792 0
DWIDTH 11 0
BBX 7 7 0 -2
BITMAP
74
92
3A
EE
B8
92
5C
ENDCHAR
STARTCHAR 058
ENCODING 58
SWIDTH 792 0
DWIDTH 11 0
BBX 11 11 0 -2
BITMAP
0380
0040
0320
00A0
74A0
9200
3A00
EE00
B800
9200
5C00
ENDCHAR
STARTCHAR 059
ENCODING 59
SWIDTH 792 0
DWIDTH 11 0
BBX 9 9 1 -1
BITMAP
0E00
6300
F300
9600
8880
3480
6780
6300
3800
ENDCHAR
STARTCHAR 060
ENCODING 60
SWIDTH 792 0
DWIDTH 11 0
BBX 11 11 0 -2
BITMAP
7FC0
F8E0
CE60
8660
B4E0
BBA0
E5A0
CC20
CE60
E3E0
7FC0
ENDCHAR
STARTCHAR 061
ENCODING 61
SWIDTH 792 0
DWIDTH 11 0
BBX 7 8 2 -2
BITMAP
10
08
28
BA
FE
FC
7C
7C
ENDCHAR
STARTCHAR 062
ENCODING 62
SWIDTH 792 0
DWIDTH 11 0
BBX 11 11 0 -2
BITMAP
5B40
EAE0
BFA0
DB60
FDE0
F5E0
D160
C060
C0E0
E0E0
60C0
ENDCHAR
STARTCHAR 063
ENCODING 63
SWIDTH 792 0
DWIDTH 11 0
BBX 5 8 3 1
BITMAP
70
70
00
70
F8
F8
F8
20
ENDCHAR
STARTCHAR 064
ENCODING 64
SWIDTH 792 0
DWIDTH 11 0
BBX 11 11 0 -2
BITMAP
0E00
0E00
0000
0E00
1F00
1F00
1F00
0400
4040
9520
2480
ENDCHAR
STARTCHAR 065
ENCODING 65
SWIDTH 792 0
DWIDTH 11 0
BBX 5 8 3 -2
BITMAP
F8
F8
F8
F8
F8
00
20
F8
ENDCHAR
STARTCHAR 066
ENCODING 66
SWIDTH 792 0
DWIDTH 11 0
BBX 11 11 0 -2
BITMAP
2480
9520
4040
1F00
DF60
1F00
1F00
1F00
0000
0400
1F00
ENDCHAR
STARTCHAR 067
ENCODING 67
SWIDTH 792 0
DWIDTH 11 0
BBX 5 8 3 -2
BITMAP
20
70
70
F8
F8
00
20
F8
ENDCHAR
STARTCHAR 068
ENCODING 68
SWIDTH 792 0
DWIDTH 11 0
BBX 11 11 0 -2
BITMAP
2480
9520
4040
0400
CE60
0E00
1F00
1F00
0000
0400
1F00
ENDCHAR
STARTCHAR 069
ENCODING 69
SWIDTH 792 0
DWIDTH 11 0
BBX 5 8 3 -2
BITMAP
70
F8
F8
F8
70
00
20
F8
ENDCHAR
STARTCHAR 070
ENCODING 70
SWIDTH 792 0
DWIDTH 11 0
BBX 11 11 0 -2
BITMAP
2480
9520
4040
0E00
DF60
1F00
1F00
0E00
0000
0400
1F00
ENDCHAR
STARTCHAR 071
ENCODING 71
SWIDTH 792 0
DWIDTH 11 0
BBX 5 11 0 -2
BITMAP
F8
A8
F8
A8
F8
A8
F8
A8
F8
A8
F8
ENDCHAR
STARTCHAR 072
ENCODING 72
SWIDTH 792 0
DWIDTH 11 0
BBX 11 11 0 -2
BITMAP
FB80
A840
FB20
A8A0
F8A0
AB20
F840
AB80
F800
A800
F800
ENDCHAR
STARTCHAR 073
ENCODING 73
SWIDTH 792 0
DWIDTH 11 0
BBX 11 6 0 -2
BITMAP
FBE0
5140
5140
5140
5140
FBE0
ENDCHAR
STARTCHAR 074
ENCODING 74
SWIDTH 792 0
DWIDTH 11 0
BBX 11 11 0 -2
BITMAP
3F80
4040
8E20
9120
0000
FBE0
5140
5140
5140
5140
FBE0
ENDCHAR
STARTCHAR 075
ENCODING 75
SWIDTH 792 0
DWIDTH 11 0
BBX 11 6 0 -2
BITMAP
FFE0
8020
AAA0
A2A0
8020
FFE0
ENDCHAR
STARTCHAR 076
ENCODING 76
SWIDTH 792 0
DWIDTH 11 0
BBX 11 11 0 -2
BITMAP
0400
2480
9120
4040
0000
FFE0
8020
AAA0
A2A0
8020
FFE0
ENDCHAR
STARTCHAR 077
ENCODING 77
SWIDTH 792 0
DWIDTH 11 0
BBX 10 9 1 -1
BITMAP
0300
0880
1A40
2940
4940
4A40
5880
DB00
C000
ENDCHAR
STARTCHAR 078
ENCODING 78
SWIDTH 792 0
DWIDTH 11 0
BBX 11 11 0 -2
BITMAP
7FC0
FE60
FBA0
F2C0
EB40
DB40
DAC0
D3A0
9260
9FE0
7FC0
ENDCHAR
STARTCHAR 079
ENCODING 79
SWIDTH 792 0
DWIDTH 11 0
BBX 11 6 0 -2
BITMAP
7FC0
8020
A2A0
AAA0
8020
7FC0
ENDCHAR
STARTCHAR 080
ENCODING 80
SWIDTH 792 0
DWIDTH 11 0
BBX 11 11 0 -2
BITMAP
0400
2480
9120
4040
0000
7FC0
8020
A2A0
AAA0
8020
7FC0
ENDCHAR
STARTCHAR 081
ENCODING 81
SWIDTH 792 0
DWIDTH 11 0
BBX 8 10 3 -2
BITMAP
1F
22
42
C2
C2
FE
7E
7F
14
08
ENDCHAR
STARTCHAR 082
ENCODING 82
SWIDTH 792 0
DWIDTH 11 0
BBX 11 11 0 -2
BITMAP
7FC0
FC00
BBA0
D7A0
E7A0
A7A0
E020
D020
B000
FD60
7EC0
ENDCHAR
STARTCHAR 083
ENCODING 83
SWIDTH 792 0
DWIDTH 11 0
BBX 8 10 0 -2
BITMAP
F8
44
42
43
43
7F
7E
FE
28
10
ENDCHAR
STARTCHAR 084
ENCODING 84
SWIDTH 792 0
DWIDTH 11 0
BBX 11 11 0 -2
BITMAP
7FC0
07E0
BBA0
BD60
BCE0
BCA0
80E0
8160
01A0
D7E0
6FC0
ENDCHAR
STARTCHAR 085
ENCODING 85
SWIDTH 792 0
DWIDTH 11 0
BBX 11 9 0 -2
BITMAP
0E00
0000
2780
73C0
C060
C060
C060
79C0
3C80
ENDCHAR
STARTCHAR 086
ENCODING 86
SWIDTH 792 0
DWIDTH 11 0
BBX 11 11 0 -2
BITMAP
3F80
4040
8E20
8020
2780
73C0
C060
C060
C060
79C0
3C80
ENDCHAR
STARTCHAR 087
ENCODING 87
SWIDTH 792 0
DWIDTH 11 0
BBX 11 9 0 -2
BITMAP
0E00
0000
1100
0A00
EAE0
FBE0
EAE0
0A00
1100
ENDCHAR
STARTCHAR 088
ENCODING 88
SWIDTH 792 0
DWIDTH 11 0
BBX 11 11 0 -2
BITMAP
3F80
4040
8E20
8020
1100
0A00
EAE0
FBE0
EAE0
0A00
1100
ENDCHAR
STARTCHAR 089
ENCODING 89
SWIDTH 792 0
DWIDTH 11 0
BBX 7 7 0 0
BITMAP
0C
3C
FC
FE
FC
3C
0C
ENDCHAR
STARTCHAR 090
ENCODING 90
SWIDTH 792 0
DWIDTH 11 0
BBX 11 11 0 -2
BITMAP
0180
0040
0C20
3D20
FCA0
FEA0
FCA0
3D20
0C20
0040
0180
ENDCHAR
STARTCHAR 091
ENCODING 91
SWIDTH 792 0
DWIDTH 11 0
BBX 9 9 1 -1
BITMAP
1C00
0800
1C00
1C00
1C00
9C80
9C80
FF80
7700
ENDCHAR
STARTCHAR 092
ENCODING 92
SWIDTH 792 0
DWIDTH 11 0
BBX 11 11 0 -2
BITMAP
7FC0
F1E0
FBE0
F1E0
F1E0
F1E0
B1A0
B1A0
8020
C460
7FC0
ENDCHAR
STARTCHAR 093
ENCODING 93
SWIDTH 792 0
DWIDTH 11 0
BBX 9 7 1 -2
BITMAP
1C00
3E00
7F00
7F00
7F00
0000
FF80
ENDCHAR
STARTCHAR 094
ENCODING 94
SWIDTH 792 0
DWIDTH 11 0
BBX 11 11 0 -2
BITMAP
4440
2480
9520
4040
0E00
9F20
3F80
3F80
3F80
0000
7FC0
ENDCHAR
STARTCHAR 095
ENCODING 95
SWIDTH 792 0
DWIDTH 11 0
BBX 11 11 0 -2
BITMAP
7FC0
FBE0
8E20
8020
8020
8020
8020
FFE0
DF60
FFE0
2080
ENDCHAR
STARTCHAR 096
ENCODING 96
SWIDTH 792 0
DWIDTH 11 0
BBX 11 11 0 -2
BITMAP
7FC0
FBE0
8E20
8020
9520
A4A0
8020
FFE0
DF60
FFE0
2080
ENDCHAR
STARTCHAR 097
ENCODING 97
SWIDTH 792 0
DWIDTH 11 0
BBX 9 8 1 0
BITMAP
7F00
8080
1C00
2200
0000
F800
FC00
F800
ENDCHAR
STARTCHAR 098
ENCODING 98
SWIDTH 792 0
DWIDTH 11 0
BBX 11 11 0 -2
BITMAP
7FC0
C060
BFA0
F1E0
EEE0
FFE0
83A0
8160
83A0
FFE0
7FC0
ENDCHAR
STARTCHAR 099
ENCODING 99
SWIDTH 792 0
DWIDTH 11 0
BBX 9 7 1 0
BITMAP
F300
8480
8480
E480
8480
8480
8300
ENDCHAR
STARTCHAR 100
ENCODING 100
SWIDTH 792 0
DWIDTH 11 0
BBX 11 11 0 -2
BITMAP
7FC0
FFE0
8660
BDA0
BDA0
8DA0
BDA0
BDA0
BE60
FFE0
7FC0
ENDCHAR
STARTCHAR 101
ENCODING 101
SWIDTH 792 0
DWIDTH 11 0
BBX 9 7 1 0
BITMAP
F100
8300
8500
E100
8100
8100
8780
ENDCHAR
STARTCHAR 102
ENCODING 102
SWIDTH 792 0
DWIDTH 11 0
BBX 11 11 0 -2
BITMAP
7FC0
FFE0
8760
BE60
BD60
8F60
BF60
BF60
BC20
FFE0
7FC0
ENDCHAR
STARTCHAR 103
ENCODING 103
SWIDTH 792 0
DWIDTH 11 0
BBX 9 7 1 0
BITMAP
F300
8480
8080
E100
8200
8400
8780
ENDCHAR
STARTCHAR 104
ENCODING 104
SWIDTH 792 0
DWIDTH 11 0
BBX 11 11 0 -2
BITMAP
7FC0
FFE0
8660
BDA0
BFA0
8F60
BEE0
BDE0
BC20
FFE0
7FC0
ENDCHAR
STARTCHAR 105
ENCODING 105
SWIDTH 792 0
DWIDTH 11 0
BBX 9 7 1 0
BITMAP
F300
8480
8080
E100
8080
8480
8300
ENDCHAR
STARTCHAR 106
ENCODING 106
SWIDTH 792 0
DWIDTH 11 0
BBX 11 11 0 -2
BITMAP
7FC0
FFE0
8660
BDA0
BFA0
8F60
BFA0
BDA0
BE60
FFE0
7FC0
ENDCHAR
STARTCHAR 107
ENCODING 107
SWIDTH 792 0
DWIDTH 11 0
BBX 9 7 1 0
BITMAP
F080
8180
8280
E480
8780
8080
8080
ENDCHAR
STARTCHAR 108
ENCODING 108
SWIDTH 792 0
DWIDTH 11 0
BBX 11 11 0 -2
BITMAP
7FC0
FFE0
87A0
BF20
BEA0
8DA0
BC20
BFA0
BFA0
FFE0
7FC0
ENDCHAR
STARTCHAR 109
ENCODING 109
SWIDTH 792 0
DWIDTH 11 0
BBX 9 7 1 0
BITMAP
F780
8400
8400
E700
8080
8080
8700
ENDCHAR
STARTCHAR 110
ENCODING 110
SWIDTH 792 0
DWIDTH 11 0
BBX 11 11 0 -2
BITMAP
7FC0
FFE0
8420
BDE0
BDE0
8C60
BFA0
BFA0
BC60
FFE0
7FC0
ENDCHAR
STARTCHAR 111
ENCODING 111
SWIDTH 792 0
DWIDTH 11 0
BBX 9 7 1 0
BITMAP
F180
8200
8400
E700
8480
8480
8300
ENDCHAR
STARTCHAR 112
ENCODING 112
SWIDTH 792 0
DWIDTH 11 0
BBX 11 11 0 -2
BITMAP
7FC0
FFE0
8720
BEE0
BDE0
8C60
BDA0
BDA0
BE60
FFE0
7FC0
ENDCHAR
STARTCHAR 113
ENCODING 113
SWIDTH 792 0
DWIDTH 11 0
BBX 9 7 1 0
BITMAP
F780
8080
8080
E100
8200
8400
8400
ENDCHAR
STARTCHAR 114
ENCODING 114
SWIDTH 792 0
DWIDTH 11 0
BBX 11 11 0 -2
BITMAP
7FC0
FFE0
8420
BFA0
BFA0
8F60
BEE0
BDE0
BDE0
FFE0
7FC0
ENDCHAR
STARTCHAR 115
ENCODING 115
SWIDTH 792 0
DWIDTH 11 0
BBX 9 7 1 0
BITMAP
F300
8480
8480
E300
8480
8480
8300
ENDCHAR
STARTCHAR 116
ENCODING 116
SWIDTH 792 0
DWIDTH 11 0
BBX 11 11 0 -2
BITMAP
7FC0
FFE0
8660
BDA0
BDA0
8E60
BDA0
BDA0
BE60
FFE0
7FC0
ENDCHAR
STARTCHAR 117
ENCODING 117
SWIDTH 792 0
DWIDTH 11 0
BBX 9 7 1 0
BITMAP
F300
8480
8480
E380
8080
8100
8600
ENDCHAR
STARTCHAR 118
ENCODING 118
SWIDTH 792 0
DWIDTH 11 0
BBX 11 11 0 -2
BITMAP
7FC0
FFE0
8660
BDA0
BDA0
8E20
BFA0
BF60
BCE0
FFE0
7FC0
ENDCHAR
STARTCHAR 119
ENCODING 119
SWIDTH 792 0
DWIDTH 11 0
BBX 9 7 1 0
BITMAP
2300
6480
A480
2480
2480
2480
F300
ENDCHAR
STARTCHAR 120
ENCODING 120
SWIDTH 792 0
DWIDTH 11 0
BBX 11 11 0 -2
BITMAP
7FC0
FFE0
EE60
CDA0
ADA0
EDA0
EDA0
EDA0
8660
FFE0
7FC0
ENDCHAR
STARTCHAR 121
ENCODING 121
SWIDTH 792 0
DWIDTH 11 0
BBX 9 7 1 0
BITMAP
2100
6300
A500
2100
2100
2100
F780
ENDCHAR
STARTCHAR 122
ENCODING 122
SWIDTH 792 0
DWIDTH 11 0
BBX 11 11 0 -2
BITMAP
7FC0
FFE0
EF60
CE60
AD60
EF60
EF60
EF60
8420
FFE0
7FC0
ENDCHAR
STARTCHAR 123
ENCODING 123
SWIDTH 792 0
DWIDTH 11 0
BBX 9 7 1 0
BITMAP
2300
6480
A080
2100
2200
2400
F780
ENDCHAR
STARTCHAR 124
ENCODING 124
SWIDTH 792 0
DWIDTH 11 0
BBX 11 11 0 -2
BITMAP
7FC0
FFE0
EE60
CDA0
AFA0
EF60
EEE0
EDE0
8420
FFE0
7FC0
ENDCHAR
STARTCHAR 125
ENCODING 125
SWIDTH 792 0
DWIDTH 11 0
BBX 9 7 1 0
BITMAP
2300
6480
A080
2100
2080
2480
F300
ENDCHAR
STARTCHAR 126
ENCODING 126
SWIDTH 792 0
DWIDTH 11 0
BBX 11 11 0 -2
BITMAP
7FC0
FFE0
EE60
CDA0
AFA0
EF60
EFA0
EDA0
8660
FFE0
7FC0
ENDCHAR
STARTCHAR 127
ENCODING 127
SWIDTH 792 0
DWIDTH 11 0
BBX 9 7 1 0
BITMAP
2080
6180
A280
2480
2780
2080
F080
ENDCHAR
STARTCHAR 128
ENCODING 128
SWIDTH 792 0
DWIDTH 11 0
BBX 11 11 0 -2
BITMAP
7FC0
FFE0
EFA0
CF20
AEA0
EDA0
EC20
EFA0
87A0
FFE0
7FC0
ENDCHAR
STARTCHAR 129
ENCODING 129
SWIDTH 792 0
DWIDTH 11 0
BBX 9 7 1 0
BITMAP
2780
6400
A400
2700
2080
2080
F700
ENDCHAR
STARTCHAR 130
ENCODING 130
SWIDTH 792 0
DWIDTH 11 0
BBX 11 11 0 -2
BITMAP
7FC0
FFE0
EC20
CDE0
ADE0
EC60
EFA0
EFA0
8460
FFE0
7FC0
ENDCHAR
STARTCHAR 131
ENCODING 131
SWIDTH 792 0
DWIDTH 11 0
BBX 9 7 1 0
BITMAP
2180
6200
A400
2700
2480
2480
F300
ENDCHAR
STARTCHAR 132
ENCODING 132
SWIDTH 792 0
DWIDTH 11 0
BBX 11 11 0 -2
BITMAP
7FC0
FFE0
EF20
CEE0
ADE0
EC60
EDA0
EDA0
8660
FFE0
7FC0
ENDCHAR
STARTCHAR 133
ENCODING 133
SWIDTH 792 0
DWIDTH 11 0
BBX 9 7 1 0
BITMAP
2780
6080
A080
2100
2200
2400
F400
ENDCHAR
STARTCHAR 134
ENCODING 134
SWIDTH 792 0
DWIDTH 11 0
BBX 11 11 0 -2
BITMAP
7FC0
FFE0
EC20
CFA0
AFA0
EF60
EEE0
EDE0
85E0
FFE0
7FC0
ENDCHAR
STARTCHAR 135
ENCODING 135
SWIDTH 792 0
DWIDTH 11 0
BBX 9 7 1 0
BITMAP
2300
6480
A480
2300
2480
2480
F300
ENDCHAR
STARTCHAR 136
ENCODING 136
SWIDTH 792 0
DWIDTH 11 0
BBX 11 11 0 -2
BITMAP
7FC0
FFE0
EE60
CDA0
ADA0
EE60
EDA0
EDA0
8660
FFE0
7FC0
ENDCHAR
STARTCHAR 137
ENCODING 137
SWIDTH 792 0
DWIDTH 11 0
BBX 9 7 1 0
BITMAP
2300
6480
A480
2380
2080
2100
F600
ENDCHAR
STARTCHAR 138
ENCODING 138
SWIDTH 792 0
DWIDTH 11 0
BBX 11 11 0 -2
BITMAP
7FC0
FFE0
EE60
CDA0
ADA0
EE20
EFA0
EF60
84E0
FFE0
7FC0
ENDCHAR
STARTCHAR 139
ENCODING 139
SWIDTH 792 0
DWIDTH 11 0
BBX 9 7 1 0
BITMAP
6300
9480
1480
2480
4480
8480
F300
ENDCHAR
STARTCHAR 140
ENCODING 140
SWIDTH 792 0
DWIDTH 11 0
BBX 11 11 0 -2
BITMAP
7FC0
FFE0
CE60
B5A0
F5A0
EDA0
DDA0
BDA0
8660
FFE0
7FC0
ENDCHAR
STARTCHAR 141
ENCODING 141
SWIDTH 792 0
DWIDTH 11 0
BBX 9 7 1 0
BITMAP
6100
9300
1500
2100
4100
8100
F780
ENDCHAR
STARTCHAR 142
ENCODING 142
SWIDTH 792 0
DWIDTH 11 0
BBX 11 11 0 -2
BITMAP
7FC0
FFE0
CF60
B660
F560
EF60
DF60
BF60
8420
FFE0
7FC0
ENDCHAR
STARTCHAR 143
ENCODING 143
SWIDTH 792 0
DWIDTH 11 0
BBX 9 7 1 0
BITMAP
6300
9480
1080
2100
4200
8400
F780
ENDCHAR
STARTCHAR 144
ENCODING 144
SWIDTH 792 0
DWIDTH 11 0
BBX 11 11 0 -2
BITMAP
7FC0
FFE0
CE60
B5A0
F7A0
EF60
DEE0
BDE0
8420
FFE0
7FC0
ENDCHAR
STARTCHAR 145
ENCODING 145
SWIDTH 792 0
DWIDTH 11 0
BBX 9 7 1 0
BITMAP
6300
9480
1080
2100
4080
8480
F300
ENDCHAR
STARTCHAR 146
ENCODING 146
SWIDTH 792 0
DWIDTH 11 0
BBX 11 11 0 -2
BITMAP
7FC0
FFE0
CE60
B5A0
F7A0
EF60
DFA0
BDA0
8660
FFE0
7FC0
ENDCHAR
STARTCHAR 147
ENCODING 147
SWIDTH 792 0
DWIDTH 11 0
BBX 9 7 1 0
BITMAP
6080
9180
1280
2480
4780
8080
F080
ENDCHAR
STARTCHAR 148
ENCODING 148
SWIDTH 792 0
DWIDTH 11 0
BBX 11 11 0 -2
BITMAP
7FC0
FFE0
CFA0
B720
F6A0
EDA0
DC20
BFA0
87A0
FFE0
7FC0
ENDCHAR
STARTCHAR 149
ENCODING 149
SWIDTH 792 0
DWIDTH 11 0
BBX 9 7 1 0
BITMAP
6780
9400
1400
2700
4080
8080
F700
ENDCHAR
STARTCHAR 150
ENCODING 150
SWIDTH 792 0
DWIDTH 11 0
BBX 11 11 0 -2
BITMAP
7FC0
FFE0
CC20
B5E0
F5E0
EC60
DFA0
BFA0
8460
FFE0
7FC0
ENDCHAR
STARTCHAR 151
ENCODING 151
SWIDTH 792 0
DWIDTH 11 0
BBX 9 7 1 0
BITMAP
6180
9200
1400
2700
4480
8480
F300
ENDCHAR
STARTCHAR 152
ENCODING 152
SWIDTH 792 0
DWIDTH 11 0
BBX 11 11 0 -2
BITMAP
7FC0
FFE0
CF20
B6E0
F5E0
EC60
DDA0
BDA0
8660
FFE0
7FC0
ENDCHAR
STARTCHAR 153
ENCODING 153
SWIDTH 792 0
DWIDTH 11 0
BBX 9 7 1 0
BITMAP
6780
9080
1080
2100
4200
8400
F400
ENDCHAR
STARTCHAR 154
ENCODING 154
SWIDTH 792 0
DWIDTH 11 0
BBX 11 11 0 -2
BITMAP
7FC0
FFE0
CC20
B7A0
F7A0
EF60
DEE0
BDE0
85E0
FFE0
7FC0
ENDCHAR
STARTCHAR 155
ENCODING 155
SWIDTH 792 0
DWIDTH 11 0
BBX 9 7 1 0
BITMAP
6300
9480
1480
2300
4480
8480
F300
ENDCHAR
STARTCHAR 156
ENCODING 156
SWIDTH 792 0
DWIDTH 11 0
BBX 11 11 0 -2
BITMAP
7FC0
FFE0
CE60
B5A0
F5A0
EE60
DDA0
BDA0
8660
FFE0
7FC0
ENDCHAR
STARTCHAR 157
ENCODING 157
SWIDTH 792 0
DWIDTH 11 0
BBX 9 7 1 0
BITMAP
6300
9480
1480
2380
4080
8100
F600
ENDCHAR
STARTCHAR 158
ENCODING 158
SWIDTH 792 0
DWIDTH 11 0
BBX 11 11 0 -2
BITMAP
7FC0
FFE0
CE60
B5A0
F5A0
EE20
DFA0
BF60
84E0
FFE0
7FC0
ENDCHAR
STARTCHAR 159
ENCODING 159
SWIDTH 792 0
DWIDTH 11 0
BBX 9 7 1 0
BITMAP
6300
9480
1480
2480
1480
9480
6300
ENDCHAR
STARTCHAR 160
ENCODING 160
SWIDTH 792 0
DWIDTH 11 0
BBX 11 11 0 -2
BITMAP
7FC0
FFE0
CE60
B5A0
F5A0
EDA0
F5A0
B5A0
CE60
FFE0
7FC0
ENDCHAR
STARTCHAR 161
ENCODING 161
SWIDTH 792 0
DWIDTH 11 0
BBX 9 7 1 0
BITMAP
6100
9300
1500
2100
1100
9100
6780
ENDCHAR
STARTCHAR 162
ENCODING 162
SWIDTH 792 0
DWIDTH 11 0
BBX 11 11 0 -2
BITMAP
7FC0
FFE0
CF60
B660
F560
EF60
F760
B760
CC20
FFE0
7FC0
ENDCHAR
STARTCHAR 163
ENCODING 163
SWIDTH 792 0
DWIDTH 11 0
BBX 11 9 0 -1
BITMAP
0020
37A0
7BC0
40E0
C0E0
40E0
7BC0
3DA0
0020
ENDCHAR
STARTCHAR 164
ENCODING 164
SWIDTH 792 0
DWIDTH 11 0
BBX 11 11 0 -2
BITMAP
7FC0
C7E0
8FE0
BC40
3E20
BF00
8F00
C700
FE20
FC40
7FC0
ENDCHAR
STARTCHAR 165
ENCODING 165
SWIDTH 792 0
DWIDTH 11 0
BBX 11 9 0 -1
BITMAP
8000
B780
7BC0
E040
E060
E040
7BC0
BD80
8000
ENDCHAR
STARTCHAR 166
ENCODING 166
SWIDTH 792 0
DWIDTH 11 0
BBX 11 11 0 -2
BITMAP
7FC0
47E0
8FE0
3C60
3E20
3FA0
8F80
47A0
FE20
FC60
7FC0
ENDCHAR
STARTCHAR 167
ENCODING 167
SWIDTH 792 0
DWIDTH 11 0
BBX 11 11 0 -2
BITMAP
FFE0
0000
4000
8000
4400
1F00
71C0
C060
71C0
1F00
7FC0
ENDCHAR
STARTCHAR 168
ENCODING 168
SWIDTH 792 0
DWIDTH 11 0
BBX 11 11 0 -2
BITMAP
FFE0
0400
0E00
1B00
3180
60C0
3180
1B00
4E00
8400
5F80
ENDCHAR
STARTCHAR 169
ENCODING 169
SWIDTH 792 0
DWIDTH 11 0
BBX 11 11 0 -2
BITMAP
FFE0
0000
0040
0020
0440
1F00
71C0
C060
71C0
1F00
7FC0
ENDCHAR
STARTCHAR 170
ENCODING 170
SWIDTH 792 0
DWIDTH 11 0
BBX 11 11 0 -2
BITMAP
FFE0
0400
0E00
1B00
3180
60C0
3180
1B00
0E40
0420
3F40
ENDCHAR
STARTCHAR 171
ENCODING 171
SWIDTH 792 0
DWIDTH 11 0
BBX 11 11 0 -2
BITMAP
1780
17C0
17E0
17E0
17E0
17C0
1780
0000
4000
F000
4000
ENDCHAR
STARTCHAR 172
ENCODING 172
SWIDTH 792 0
DWIDTH 11 0
BBX 11 11 0 -2
BITMAP
D780
17C0
D7E0
17E0
D7E0
17C0
D780
0000
4000
F000
4000
ENDCHAR
STARTCHAR 173
ENCODING 173
SWIDTH 792 0
DWIDTH 11 0
BBX 11 11 0 -2
BITMAP
3D00
7D00
FD00
FD00
FD00
7D00
3D00
0000
0040
01E0
0040
ENDCHAR
STARTCHAR 174
ENCODING 174
SWIDTH 792 0
DWIDTH 11 0
BBX 11 11 0 -2
BITMAP
3D60
7D00
FD60
FD00
FD60
7D00
3D60
0000
0040
01E0
0040
ENDCHAR
STARTCHAR 175
ENCODING 175
SWIDTH 792 0
DWIDTH 11 0
BBX 7 8 2 0
BITMAP
10
38
7C
FE
7C
7C
7C
7C
ENDCHAR
STARTCHAR 176
ENCODING 176
SWIDTH 792 0
DWIDTH 11 0
BBX 11 11 0 -2
BITMAP
7FC0
FBE0
F1E0
E0E0
C060
E0E0
E0E0
E0E0
E0E0
FFE0
7FC0
ENDCHAR
STARTCHAR 177
ENCODING 177
SWIDTH 792 0
DWIDTH 11 0
BBX 9 9 1 -1
BITMAP
3E00
4100
8080
1C00
BE00
6B00
6B00
B600
1C00
ENDCHAR
STARTCHAR 178
ENCODING 178
SWIDTH 792 0
DWIDTH 11 0
BBX 11 11 0 -2
BITMAP
7FC0
E0E0
DF60
BFA0
F1E0
A0E0
CA60
CA60
A4E0
F1E0
7FC0
ENDCHAR
STARTCHAR 179
ENCODING 179
SWIDTH 792 0
DWIDTH 11 0
BBX 7 9 2 -1
BITMAP
7C
38
00
54
92
00
EE
AA
EE
ENDCHAR
STARTCHAR 180
ENCODING 180
SWIDTH 792 0
DWIDTH 11 0
BBX 11 11 0 -2
BITMAP
7FC0
E0E0
F1E0
FFE0
EAE0
DB60
FFE0
C460
D560
C460
7FC0
ENDCHAR
STARTCHAR 181
ENCODING 181
SWIDTH 792 0
DWIDTH 11 0
BBX 10 10 0 -1
BITMAP
1F00
2080
4E40
1100
0000
3F40
0240
FE40
0240
3FC0
ENDCHAR
STARTCHAR 182
ENCODING 182
SWIDTH 792 0
DWIDTH 11 0
BBX 11 11 0 -2
BITMAP
60C0
DF60
B1A0
EEE0
FFA0
E0E0
FDA0
81A0
FDA0
E060
7FC0
ENDCHAR
STARTCHAR 183
ENCODING 183
SWIDTH 792 0
DWIDTH 11 0
BBX 4 9 0 -2
BITMAP
60
F0
F0
60
F0
F0
F0
60
60
ENDCHAR
STARTCHAR 184
ENCODING 184
SWIDTH 792 0
DWIDTH 11 0
BBX 11 11 0 -2
BITMAP
0380
0040
6320
F0A0
F2A0
64A0
F120
F040
F180
6000
6000
ENDCHAR
STARTCHAR 185
ENCODING 185
SWIDTH 792 0
DWIDTH 11 0
BBX 6 9 3 -1
BITMAP
30
30
30
30
38
9C
CC
78
30
ENDCHAR
STARTCHAR 186
ENCODING 186
SWIDTH 792 0
DWIDTH 11 0
BBX 11 11 0 -2
BITMAP
7FC0
F9E0
F9E0
F9E0
F9E0
F8E0
EC60
E660
F0E0
F9E0
7FC0
ENDCHAR
STARTCHAR 187
ENCODING 187
SWIDTH 792 0
DWIDTH 11 0
BBX 5 7 3 0
BITMAP
20
70
F8
70
70
70
70
ENDCHAR
STARTCHAR 188
ENCODING 188
SWIDTH 792 0
DWIDTH 11 0
BBX 11 11 0 -2
BITMAP
7FC0
FFE0
FBE0
F1E0
E0E0
F1E0
F1E0
F1E0
F1E0
FFE0
7FC0
ENDCHAR
STARTCHAR 189
ENCODING 189
SWIDTH 792 0
DWIDTH 11 0
BBX 5 7 3 0
BITMAP
70
70
70
70
F8
70
20
ENDCHAR
STARTCHAR 190
ENCODING 190
SWIDTH 792 0
DWIDTH 11 0
BBX 11 11 0 -2
BITMAP
7FC0
FFE0
F1E0
F1E0
F1E0
F1E0
E0E0
F1E0
FBE0
FFE0
7FC0
ENDCHAR
STARTCHAR 191
ENCODING 191
SWIDTH 792 0
DWIDTH 11 0
BBX 7 5 2 1
BITMAP
20
7E
FE
7E
20
ENDCHAR
STARTCHAR 192
ENCODING 192
SWIDTH 792 0
DWIDTH 11 0
BBX 11 11 0 -2
BITMAP
7FC0
FFE0
FFE0
F7E0
E060
C060
E060
F7E0
FFE0
FFE0
7FC0
ENDCHAR
STARTCHAR 193
ENCODING 193
SWIDTH 792 0
DWIDTH 11 0
BBX 7 5 2 1
BITMAP
08
FC
FE
FC
08
ENDCHAR
STARTCHAR 194
ENCODING 194
SWIDTH 792 0
DWIDTH 11 0
BBX 11 11 0 -2
BITMAP
7FC0
FFE0
FFE0
FDE0
C0E0
C060
C0E0
FDE0
FFE0
FFE0
7FC0
ENDCHAR
STARTCHAR 195
ENCODING 195
SWIDTH 792 0
DWIDTH 11 0
BBX 8 9 2 -1
BITMAP
FC
7E
0F
07
27
7F
FE
7C
20
ENDCHAR
STARTCHAR 196
ENCODING 196
SWIDTH 792 0
DWIDTH 11 0
BBX 11 11 0 -2
BITMAP
7FC0
C0E0
E060
FC20
FE20
F620
E020
C060
E0E0
F7E0
7FC0
ENDCHAR
STARTCHAR 197
ENCODING 197
SWIDTH 792 0
DWIDTH 11 0
BBX 9 9 1 -1
BITMAP
3E00
7F00
FF80
F780
E380
E380
E380
A280
E380
ENDCHAR
STARTCHAR 198
ENCODING 198
SWIDTH 792 0
DWIDTH 11 0
BBX 11 11 0 -2
BITMAP
7FC0
E0E0
CE60
9120
A4A0
AEA0
AEA0
8E20
AEA0
8E20
7FC0
ENDCHAR
STARTCHAR 199
ENCODING 199
SWIDTH 792 0
DWIDTH 11 0
BBX 8 9 1 -1
BITMAP
82
5D
32
10
18
14
12
11
10
ENDCHAR
STARTCHAR 200
ENCODING 200
SWIDTH 792 0
DWIDTH 11 0
BBX 11 11 0 -2
BITMAP
7FC0
BEE0
D160
E6E0
F7E0
F3E0
F5E0
F6E0
F760
F7E0
7FC0
ENDCHAR
STARTCHAR 201
ENCODING 201
SWIDTH 792 0
DWIDTH 11 0
BBX 11 9 0 -1
BITMAP
7FC0
0400
4A40
9120
A0A0
A0A0
9120
4A40
1F00
ENDCHAR
STARTCHAR 202
ENCODING 202
SWIDTH 792 0
DWIDTH 11 0
BBX 11 11 0 -2
BITMAP
7FC0
8020
FFE0
BBA0
75C0
6EC0
5F40
6EC0
B5A0
E0E0
7FC0
ENDCHAR
STARTCHAR 203
ENCODING 203
SWIDTH 792 0
DWIDTH 11 0
BBX 9 9 1 -1
BITMAP
0080
0080
0080
0180
0180
0380
0780
1F80
FF80
ENDCHAR
STARTCHAR 204
ENCODING 204
SWIDTH 792 0
DWIDTH 11 0
BBX 11 11 0 -2
BITMAP
7FC0
FFA0
FFA0
FFA0
FF20
FF20
FE20
FC20
F020
8020
7FC0
ENDCHAR
STARTCHAR 205
ENCODING 205
SWIDTH 792 0
DWIDTH 11 0
BBX 9 11 1 -2
BITMAP
0800
0800
0800
1400
1400
1400
1C00
2200
3E00
4100
FF80
ENDCHAR
STARTCHAR 206
ENCODING 206
SWIDTH 792 0
DWIDTH 11 0
BBX 11 11 0 -2
BITMAP
64C0
8420
A4A0
AAA0
8A20
6AC0
0E00
1100
1F00
2080
7FC0
ENDCHAR
STARTCHAR 207
ENCODING 207
SWIDTH 792 0
DWIDTH 11 0
BBX 7 11 0 -2
BITMAP
80
80
80
84
9C
FC
FE
FC
9C
84
80
ENDCHAR
STARTCHAR 208
ENCODING 208
SWIDTH 792 0
DWIDTH 11 0
BBX 11 11 0 -2
BITMAP
8000
8000
8180
8440
9D20
FCA0
FEA0
FCA0
9D20
8440
8180
ENDCHAR
STARTCHAR 209
ENCODING 209
SWIDTH 792 0
DWIDTH 11 0
BBX 6 9 0 -1
BITMAP
80
B0
B8
BC
BC
BC
B8
B0
80
ENDCHAR
STARTCHAR 210
ENCODING 210
SWIDTH 792 0
DWIDTH 11 0
BBX 10 11 0 -2
BITMAP
0100
8200
B080
B900
BC00
BDC0
BC00
B900
B080
8200
0100
ENDCHAR
STARTCHAR 211
ENCODING 211
SWIDTH 792 0
DWIDTH 11 0
BBX 5 9 2 -1
BITMAP
70
20
20
70
70
70
70
F8
C0
ENDCHAR
STARTCHAR 212
ENCODING 212
SWIDTH 792 0
DWIDTH 11 0
BBX 11 11 0 -2
BITMAP
7FC0
E260
F7A0
F7A0
E2A0
E2A0
E2A0
E3A0
C1A0
CE60
7FC0
ENDCHAR
STARTCHAR 213
ENCODING 213
SWIDTH 792 0
DWIDTH 11 0
BBX 9 7 1 -2
BITMAP
1C00
7F00
FF80
FF80
7F00
3C00
6000
ENDCHAR
STARTCHAR 214
ENCODING 214
SWIDTH 792 0
DWIDTH 11 0
BBX 11 11 0 -2
BITMAP
3F80
4040
8E20
8020
0E00
3F80
7FC0
7FC0
3F80
1E00
3000
ENDCHAR
STARTCHAR 215
ENCODING 215
SWIDTH 792 0
DWIDTH 11 0
BBX 11 6 0 -2
BITMAP
7060
FA60
D8E0
FAC0
7000
FFE0
ENDCHAR
STARTCHAR 216
ENCODING 216
SWIDTH 792 0
DWIDTH 11 0
BBX 11 11 0 -2
BITMAP
3F80
4040
8E20
9120
0000
7060
FA60
D8E0
FAC0
7000
FFE0
ENDCHAR
STARTCHAR 217
ENCODING 217
SWIDTH 792 0
DWIDTH 11 0
BBX 9 9 1 -1
BITMAP
8200
4600
2E00
5E00
5600
5A00
0E00
0700
0280
ENDCHAR
STARTCHAR 218
ENCODING 218
SWIDTH 792 0
DWIDTH 11 0
BBX 11 11 0 -2
BITMAP
7FC0
BEE0
DCE0
E8E0
D0E0
D4E0
D2E0
F8E0
FC60
FEA0
7FC0
ENDCHAR
STARTCHAR 219
ENCODING 219
SWIDTH 792 0
DWIDTH 11 0
BBX 11 11 0 -2
BITMAP
FC00
8000
B800
B800
B000
80E0
00E0
03C0
03C0
0F00
0F00
ENDCHAR
STARTCHAR 220
ENCODING 220
SWIDTH 792 0
DWIDTH 11 0
BBX 11 11 0 -2
BITMAP
FC00
8000
BB00
B800
B200
80E0
28E0
23C0
03C0
0F00
0F00
ENDCHAR
STARTCHAR 221
ENCODING 221
SWIDTH 792 0
DWIDTH 11 0
BBX 11 9 0 -1
BITMAP
4440
9E20
AD20
A520
A420
A420
A420
8420
4E40
ENDCHAR
STARTCHAR 222
ENCODING 222
SWIDTH 792 0
DWIDTH 11 0
BBX 11 11 0 -2
BITMAP
7FC0
DB60
B1A0
A2A0
AAA0
ABA0
ABA0
ABA0
BBA0
D160
7FC0
ENDCHAR
STARTCHAR 223
ENCODING 223
SWIDTH 792 0
DWIDTH 11 0
BBX 9 9 1 -1
BITMAP
7F00
8080
9C80
0000
2200
5D00
5D00
5D00
2200
ENDCHAR
STARTCHAR 224
ENCODING 224
SWIDTH 792 0
DWIDTH 11 0
BBX 11 11 0 -2
BITMAP
7FC0
C060
BFA0
B1A0
FFE0
EEE0
D160
D160
D160
EEE0
7FC0
ENDCHAR
STARTCHAR 225
ENCODING 225
SWIDTH 792 0
DWIDTH 11 0
BBX 0 0 0 0
BITMAP
ENDCHAR
STARTCHAR 226
ENCODING 226
SWIDTH 792 0
DWIDTH 11 0
BBX 0 0 0 0
BITMAP
ENDCHAR
STARTCHAR 227
ENCODING 227
SWIDTH 792 0
DWIDTH 11 0
BBX 0 0 0 0
BITMAP
ENDCHAR
STARTCHAR 228
ENCODING 228
SWIDTH 792 0
DWIDTH 11 0
BBX 0 0 0 0
BITMAP
ENDCHAR
STARTCHAR 229
ENCODING 229
SWIDTH 792 0
DWIDTH 11 0
BBX 0 0 0 0
BITMAP
ENDCHAR
STARTCHAR 230
ENCODING 230
SWIDTH 792 0
DWIDTH 11 0
BBX 0 0 0 0
BITMAP
ENDCHAR
STARTCHAR 231
ENCODING 231
SWIDTH 792 0
DWIDTH 11 0
BBX 0 0 0 0
BITMAP
ENDCHAR
STARTCHAR 232
ENCODING 232
SWIDTH 792 0
DWIDTH 11 0
BBX 0 0 0 0
BITMAP
ENDCHAR
STARTCHAR 233
ENCODING 233
SWIDTH 792 0
DWIDTH 11 0
BBX 0 0 0 0
BITMAP
ENDCHAR
STARTCHAR 234
ENCODING 234
SWIDTH 792 0
DWIDTH 11 0
BBX 0 0 0 0
BITMAP
ENDCHAR
STARTCHAR 235
ENCODING 235
SWIDTH 792 0
DWIDTH 11 0
BBX 0 0 0 0
BITMAP
ENDCHAR
STARTCHAR 236
ENCODING 236
SWIDTH 792 0
DWIDTH 11 0
BBX 0 0 0 0
BITMAP
ENDCHAR
STARTCHAR 237
ENCODING 237
SWIDTH 792 0
DWIDTH 11 0
BBX 0 0 0 0
BITMAP
ENDCHAR
STARTCHAR 238
ENCODING 238
SWIDTH 792 0
DWIDTH 11 0
BBX 0 0 0 0
BITMAP
ENDCHAR
STARTCHAR 239
ENCODING 239
SWIDTH 792 0
DWIDTH 11 0
BBX 0 0 0 0
BITMAP
ENDCHAR
STARTCHAR 240
ENCODING 240
SWIDTH 792 0
DWIDTH 11 0
BBX 0 0 0 0
BITMAP
ENDCHAR
STARTCHAR 241
ENCODING 241
SWIDTH 792 0
DWIDTH 11 0
BBX 0 0 0 0
BITMAP
ENDCHAR
STARTCHAR 242
ENCODING 242
SWIDTH 792 0
DWIDTH 11 0
BBX 0 0 0 0
BITMAP
ENDCHAR
STARTCHAR 243
ENCODING 243
SWIDTH 792 0
DWIDTH 11 0
BBX 0 0 0 0
BITMAP
ENDCHAR
STARTCHAR 244
ENCODING 244
SWIDTH 792 0
DWIDTH 11 0
BBX 0 0 0 0
BITMAP
ENDCHAR
STARTCHAR 245
ENCODING 245
SWIDTH 792 0
DWIDTH 11 0
BBX 0 0 0 0
BITMAP
ENDCHAR
STARTCHAR 246
ENCODING 246
SWIDTH 792 0
DWIDTH 11 0
BBX 0 0 0 0
BITMAP
ENDCHAR
STARTCHAR 247
ENCODING 247
SWIDTH 792 0
DWIDTH 11 0
BBX 0 0 0 0
BITMAP
ENDCHAR
STARTCHAR 248
ENCODING 248
SWIDTH 792 0
DWIDTH 11 0
BBX 0 0 0 0
BITMAP
ENDCHAR
STARTCHAR 249
ENCODING 249
SWIDTH 792 0
DWIDTH 11 0
BBX 0 0 0 0
BITMAP
ENDCHAR
STARTCHAR 250
ENCODING 250
SWIDTH 792 0
DWIDTH 11 0
BBX 0 0 0 0
BITMAP
ENDCHAR
STARTCHAR 251
ENCODING 251
SWIDTH 792 0
DWIDTH 11 0
BBX 0 0 0 0
BITMAP
ENDCHAR
STARTCHAR 252
ENCODING 252
SWIDTH 792 0
DWIDTH 11 0
BBX 0 0 0 0
BITMAP
ENDCHAR
STARTCHAR 253
ENCODING 253
SWIDTH 792 0
DWIDTH 11 0
BBX 0 0 0 0
BITMAP
ENDCHAR
STARTCHAR 254
ENCODING 254
SWIDTH 792 0
DWIDTH 11 0
BBX 0 0 0 0
BITMAP
ENDCHAR
STARTCHAR 255
ENCODING 255
SWIDTH 792 0
DWIDTH 11 0
BBX 0 0 0 0
BITMAP
ENDCHAR
ENDFONT
